# AST/ASF file generated using VICON BodyLanguage
# -----------------------------------------------
:version 1.10
:name VICON
:units
  mass 1.0
  length 0.45
  angle deg
:documentation
   .ast/.asf automatically generated from VICON data using
   VICON BodyBuilder and BodyLanguage model FoxedUp or BRILLIANT.MOD
:root
   order TX TY TZ RX RY RZ
   axis XYZ
   position 0 0 0  
   orientation 0 0 0 
:bonedata
  begin
     id 1 
     name lhipjoint
     direction 0.653368 -0.678499 0.335782 
     length 2.51848 
     axis 0 0 0  XYZ
  end
  begin
     id 2 
     name lfemur
     direction 0.34202 -0.939693 0  
     length 6.57749  
     axis 0 0 20  XYZ
    dof rx ry rz
    limits (-160.0 20.0)
           (-70.0 70.0)
           (-60.0 70.0)
  end
  begin
     id 3 
     name ltibia
     direction 0.34202 -0.939693 0   
     length 7.94618   
     axis 0 0 20   XYZ
    dof rx
    limits (-10.0 170.0)
  end
  begin
     id 4 
     name lfoot
     direction 0.0811271 -0.222895 0.971461   
     length 2.31339   
     axis -90 7.62852e-016 20   XYZ
    dof rx rz
    limits (-45.0 90.0)
           (-70.0 20.0)
  end
  begin
     id 5 
     name ltoes
     direction 1.53568e-011 -4.21885e-011 1   
     length 1.15935   
     axis -90 7.62852e-016 20   XYZ
    dof rx
    limits (-90.0 20.0)
  end
  begin
     id 6 
     name rhipjoint
     direction -0.640058 -0.688614 0.340788   
     length 2.48149  
     axis 0 0 0  XYZ 
  end
  begin
     id 7 
     name rfemur
     direction -0.34202 -0.939693 0   
     length 6.57875   
     axis 0 0 -20   XYZ
    dof rx ry rz
    limits (-160.0 20.0)
           (-70.0 70.0)
           (-70.0 60.0)
  end
  begin
     id 8 
     name rtibia
     direction -0.34202 -0.939693 0   
     length 7.977   
     axis 0 0 -20   XYZ
    dof rx
    limits (-10.0 170.0)
 end
 begin
     id 9 
     name rfoot
     direction -0.0979793 -0.269196 0.958089   
     length 2.19857  
     axis -90 -7.62852e-016 -20   XYZ
    dof rx rz
    limits (-45.0 90.0)
           (-20.0 70.0)
  end
  begin
     id 10 
     name rtoes
     direction -1.53556e-011 -4.21868e-011 1   
     length 1.09838   
     axis -90 -7.62852e-016 -20   XYZ
    dof rx
    limits (-90.0 20.0)
  end
  begin
     id 11 
     name lowerback
     direction 0.0149039 0.998517 -0.0523597   
     length 2.10809   
     axis 0 0 0   XYZ
    dof rx ry rz
    limits (-20.0 45.0)
           (-30.0 30.0)
           (-30.0 30.0)
  end
  begin
     id 12 
     name upperback
     direction -0.00882659 0.999418 -0.0329624   
     length 2.1102   
     axis 0 0 0   XYZ
    dof rx ry rz
    limits (-20.0 45.0)
           (-30.0 30.0)
           (-30.0 30.0)
  end
  begin
     id 13 
     name thorax
     direction -0.0165585 0.999826 -0.0085833   
     length 2.11039   
     axis 0 0 0   XYZ
    dof rx ry rz
    limits (-20.0 45.0)
           (-30.0 30.0)
           (-30.0 30.0)
  end
  begin
     id 14 
     name lowerneck
     direction -0.0130877 0.999911 0.00260353   
     length 1.73253   
     axis 0 0 0   XYZ
    dof rx ry rz
    limits (-20.0 45.0)
           (-30.0 30.0)
           (-30.0 30.0)
  end
  begin
     id 15 
     name upperneck
     direction -0.0348454 0.928205 -0.370435   
     length 1.66692   
     axis 0 0 0   XYZ
    dof rx ry rz
    limits (-20.0 45.0)
           (-30.0 30.0)
           (-30.0 30.0)
  end
  begin
     id 16
     name head
     direction -0.00807754 0.992494 -0.122026  
     length 1.72765  
     axis 0 0 0   XYZ
    dof rx ry rz
    limits (-20.0 45.0)
           (-30.0 30.0)
           (-30.0 30.0)
  end
  begin
     id 17 
     name lclavicle
     direction 0.987582 0.144023 0.0627671  
     length 3.49235  
     axis 0 0 0   XYZ
    dof ry rz
    limits (-20.0 10.0)
           (0.0 20.0)
  end
  begin
     id 18 
     name lhumerus
     direction 1 -4.48958e-011 -1.45183e-018   
     length 5.41917   
     axis 180 -30 -90   XYZ
    dof rx ry rz
    limits (-60.0 90.0)
           (-90.0 90.0)
           (-90.0 90.0)
  end
  begin
     id 19
     name lradius
     direction 1 -4.48999e-011 5.75106e-027   
     length 2.44373   
     axis 180 -30 -90   XYZ
    dof rx
    limits (-10.0 170.0)
  end
  begin
     id 20
     name lwrist
     direction 1 -4.48987e-011 1.53461e-026   
     length 1.22186   
     axis -1.09697e-014 90 90   XYZ
    dof ry
    limits (-180.0 0.0)
 end
  begin
     id 21 
     name lhand
     direction 1 -4.48881e-011 3.06923e-026   
     length 0.727502   
     axis -1.95843e-014 90 90   XYZ
    dof rx rz
    limits (-90.0 90.0)
           (-45.0 45.0)
  end
  begin
     id 22 
     name lfingers
     direction 1 -4.48907e-011 6.13845e-026   
     length 0.586531   
     axis -3.91686e-014 90 90   XYZ
    dof rx
    limits (0.0 90.0)
  end
  begin
     id 23
     name lthumb
     direction 0.707107 -6.3487e-011 0.707107   
     length 0.842145   
     axis -90 45 2.85299e-015   XYZ
    dof rx rz
    limits (-45.0 45.0)
           (-45.0 45.0)
  end
  begin
     id 24 
     name rclavicle
     direction -0.980998 0.169556 0.0943023   
     length 3.29272  
     axis 0 0 0   XYZ 
    dof ry rz
    limits (-10.0 20.0)
           (-20.0 0.0)
  end
  begin
     id 25 
     name rhumerus
     direction -1 -1.83355e-005 2.45537e-005  
     length 5.58976   
     axis 180 30 90   XYZ
    dof rx ry rz
    limits (-90.0 60.0)
           (-90.0 90.0)
           (-90.0 90.0)
  end
  begin
     id 26 
     name rradius
     direction -1 -4.48967e-011 5.97228e-027   
     length 2.4806   
     axis 180 30 90   XYZ
    dof rx
    limits (-10.0 170.0)
  end
  begin
     id 27 
     name rwrist
     direction -1 -4.48963e-011 1.53461e-026   
     length 1.2403   
     axis -1.09697e-014 -90 -90   XYZ
    dof ry
    limits (-180.0 0.0)
  end
  begin
     id 28
     name rhand
     direction -1 -4.48881e-011 3.06923e-026   
     length 0.816009   
     axis -1.95843e-014 -90 -90   XYZ
    dof rx rz
    limits (-90.0 90.0)
           (-45.0 45.0)
  end
  begin
     id 29
     name rfingers
     direction -1 -4.49018e-011 6.13845e-026   
     length 0.657887   
     axis -3.91686e-014 -90 -90   XYZ
    dof rx
    limits (0.0 90.0)
  end
  begin
     id 30
     name rthumb
     direction -0.707107 -6.34872e-011 0.707107   
     length 0.944599   
     axis -90 -45 -2.85299e-015   XYZ
    dof rx rz
    limits (-45.0 45.0)
           (-45.0 45.0)
  end
:hierarchy
  begin
    root lhipjoint rhipjoint lowerback
    lhipjoint lfemur
    lfemur ltibia
    ltibia lfoot
    lfoot ltoes
    rhipjoint rfemur
    rfemur rtibia
    rtibia rfoot
    rfoot rtoes
    lowerback upperback
    upperback thorax
    thorax lowerneck lclavicle rclavicle
    lowerneck upperneck
    upperneck head
    lclavicle lhumerus
    lhumerus lradius
    lradius lwrist
    lwrist lhand lthumb
    lhand lfingers
    rclavicle rhumerus
    rhumerus rradius
    rradius rwrist
    rwrist rhand rthumb
    rhand rfingers
  end

#!OML:ASF F:\VICON\USERDATA\INSTALL\rory3\rory3.ASF
:FULLY-SPECIFIED
:DEGREES
27
root -0.252014 16.1874 -14.9939 -152.757 -0.964544 176.978
lowerback -20.4996 0.698938 -3.94301
upperback -9.2229 -0.178115 -1.50071
thorax 1.4225 -0.828816 0.583737
lowerneck -9.33344 1.92823 -1.12987
upperneck 37.7251 -2.76158 2.35178
head 14.6234 -2.74133 0.324952
rclavicle 1.42783e-014 -1.03368e-014
rhumerus -43.0085 -7.11241 -74.3085
rradius 12.6031
rwrist 4.42747
rhand 14.6216 10.1092
rfingers 7.12502
rthumb 39.4953 -15.2671
lclavicle 1.42783e-014 -1.03368e-014
lhumerus -48.2935 17.2247 63.2647
lradius 24.2829
lwrist -1.99952
lhand 27.2487 22.7989
lfingers 7.12502
lthumb 51.2173 43.3582
rfemur -31.4252 -17.1943 28.7967
rtibia 60.169
rfoot 29.591 -26.4261
rtoes 25.5406
lfemur -46.7478 3.98329 -38.6239
ltibia 42.2218
lfoot -34.3301 22.572
ltoes 4.93541
28
root -0.253082 16.1885 -14.9949 -152.741 -0.906191 176.948
lowerback -20.2963 0.696227 -4.00277
upperback -9.4268 -0.232371 -1.48463
thorax 1.099 -0.86562 0.628655
lowerneck -9.0712 1.94747 -1.15442
upperneck 37.7421 -2.77308 2.3201
head 14.5711 -2.77726 0.312749
rclavicle -1.83565e-015 -1.53064e-014
rhumerus -43.3522 -6.9199 -74.322
rradius 12.6882
rwrist 4.41521
rhand 14.5969 10.161
rfingers 7.12502
rthumb 39.4721 -15.2221
lclavicle -1.83565e-015 -1.53064e-014
lhumerus -48.7284 16.837 63.4383
lradius 24.7128
lwrist -1.5374
lhand 27.2507 23.1098
lfingers 7.12502
lthumb 51.2191 43.6681
rfemur -31.4637 -17.2145 28.7485
rtibia 60.1456
rfoot 29.1582 -26.8315
rtoes 26.5085
lfemur -46.7902 3.9154 -38.6413
ltibia 42.2452
lfoot -34.4142 22.7683
ltoes 4.89447
29
root -0.250625 16.1916 -14.995 -152.891 -1.1045 177.539
lowerback -20.48 0.690532 -3.44892
upperback -9.15933 -0.257083 -1.26895
thorax 1.49479 -0.864795 0.533194
lowerneck -9.31994 1.97328 -1.07118
upperneck 37.6721 -2.67492 2.29618
head 14.5908 -2.70113 0.305469
rclavicle -6.3549e-015 1.55052e-014
rhumerus -42.9691 -7.09205 -74.3052
rradius 12.6867
rwrist 4.63851
rhand 14.772 10.055
rfingers 7.12502
rthumb 39.637 -15.2796
lclavicle -6.3549e-015 1.55052e-014
lhumerus -48.4817 17.1661 63.4184
lradius 24.7346
lwrist -1.63931
lhand 27.299 22.9029
lfingers 7.12502
lthumb 51.263 43.4363
rfemur -31.2305 -17.0397 29.435
rtibia 60
rfoot 29.3206 -26.8593
rtoes 26.3098
lfemur -46.7387 3.73527 -37.7803
ltibia 42.3509
lfoot -34.8179 22.6055
ltoes 5.81138
30
root -0.252137 16.1904 -14.9931 -152.852 -1.05062 177.377
lowerback -20.6011 0.642843 -3.61249
upperback -9.10481 -0.277798 -1.30513
thorax 1.61263 -0.87221 0.580599
lowerneck -9.31131 1.94695 -1.12459
upperneck 37.5902 -2.66397 2.2683
head 14.5488 -2.70009 0.307938
rclavicle -1.27346e-016 -4.37326e-015
rhumerus -42.8806 -7.18608 -74.287
rradius 12.7183
rwrist 4.67488
rhand 14.9793 9.8619
rfingers 7.12502
rthumb 39.8321 -15.4146
lclavicle -1.27346e-016 -4.37326e-015
lhumerus -48.4404 17.1051 63.5116
lradius 24.7948
lwrist -1.47748
lhand 27.2985 22.8792
lfingers 7.12502
lthumb 51.2626 43.4129
rfemur -31.2142 -17.101 29.2248
rtibia 59.9631
rfoot 28.6135 -27.5825
rtoes 28.2978
lfemur -46.7897 3.75548 -37.9954
ltibia 42.4298
lfoot -34.9125 22.3158
ltoes 5.78262
31
root -0.249638 16.1923 -14.9917 -152.89 -1.0148 177.518
lowerback -20.6099 0.673731 -3.51445
upperback -9.1039 -0.255238 -1.26962
thorax 1.61914 -0.862406 0.56751
lowerneck -9.20109 2.00451 -1.02947
upperneck 37.6339 -2.64238 2.28519
head 14.5438 -2.68702 0.299399
rclavicle 7.21216e-015 -2.62396e-014
rhumerus -42.9318 -7.3364 -74.1795
rradius 12.7256
rwrist 4.85624
rhand 15.204 9.88539
rfingers 7.12502
rthumb 40.0437 -15.3275
lclavicle 7.21216e-015 -2.62396e-014
lhumerus -48.4678 17.0535 63.5287
lradius 24.8396
lwrist -1.36513
lhand 27.222 22.9235
lfingers 7.12502
lthumb 51.1929 43.4966
rfemur -31.2224 -16.935 29.3607
rtibia 59.9204
rfoot 29.2038 -27.0921
rtoes 26.5177
lfemur -46.8367 3.85374 -37.8624
ltibia 42.4919
lfoot -34.9157 22.3629
ltoes 5.61881
32
root -0.251928 16.19 -14.9854 -152.881 -1.08478 177.675
lowerback -20.5738 0.681833 -3.31773
upperback -9.1674 -0.297958 -1.23096
thorax 1.53685 -0.891598 0.489452
lowerneck -8.94851 2.00247 -1.02173
upperneck 37.5152 -2.64125 2.25623
head 14.4286 -2.69638 0.289534
rclavicle -9.16273e-015 1.98785e-016
rhumerus -43.0283 -7.34295 -74.1713
rradius 12.7184
rwrist 4.97227
rhand 15.1796 9.96952
rfingers 7.12502
rthumb 40.0207 -15.2503
lclavicle -9.16273e-015 1.98785e-016
lhumerus -48.6457 17.095 63.4044
lradius 24.9441
lwrist -1.37701
lhand 27.2957 22.9155
lfingers 7.12502
lthumb 51.2601 43.4505
rfemur -31.1577 -16.9699 29.5542
rtibia 59.9119
rfoot 28.5717 -27.5723
rtoes 28.0855
lfemur -46.9126 3.79771 -37.681
ltibia 42.5229
lfoot -34.7727 22.6656
ltoes 5.06828
33
root -0.246621 16.1922 -14.9819 -152.868 -0.785553 177.404
lowerback -20.5998 0.638295 -3.77552
upperback -9.12442 -0.265138 -1.27995
thorax 1.58736 -0.864894 0.702595
lowerneck -9.06866 2.0325 -0.948556
upperneck 37.5343 -2.61038 2.28399
head 14.4646 -2.66301 0.291818
rclavicle 6.09399e-015 -1.19271e-015
rhumerus -42.9104 -7.5947 -74.0037
rradius 12.5343
rwrist 5.26598
rhand 15.0767 10.2438
rfingers 7.12502
rthumb 39.9238 -15.0052
lclavicle 6.09399e-015 -1.19271e-015
lhumerus -48.5851 17.3803 63.2607
lradius 24.9093
lwrist -1.55014
lhand 27.3866 22.8436
lfingers 7.12502
lthumb 51.3428 43.3317
rfemur -31.3133 -16.7131 29.1906
rtibia 59.9888
rfoot 29.0317 -27.1761
rtoes 27.0187
lfemur -46.9037 3.80106 -37.9852
ltibia 42.4899
lfoot -34.7396 22.7999
ltoes 4.78962
34
root -0.249072 16.1942 -14.9794 -152.931 -0.859005 177.586
lowerback -20.6351 0.653739 -3.55549
upperback -9.0045 -0.248374 -1.22253
thorax 1.73914 -0.849425 0.640627
lowerneck -9.08752 1.95105 -0.969611
upperneck 37.3678 -2.65097 2.24048
head 14.39 -2.67071 0.277643
rclavicle -4.26145e-015 4.77083e-015
rhumerus -42.6999 -7.49317 -74.1326
rradius 12.4986
rwrist 5.07962
rhand 15.014 10.4739
rfingers 7.12502
rthumb 39.8648 -14.7928
lclavicle -4.26145e-015 4.77083e-015
lhumerus -48.3738 17.4725 63.3278
lradius 24.8165
lwrist -1.41167
lhand 27.3537 22.7896
lfingers 7.12502
lthumb 51.3129 43.2947
rfemur -31.2186 -16.7356 29.3717
rtibia 59.9515
rfoot 29.0947 -27.0998
rtoes 26.9891
lfemur -46.8806 3.86402 -37.7929
ltibia 42.5444
lfoot -34.6091 22.9192
ltoes 4.26313
35
root -0.245977 16.1933 -14.9803 -152.867 -0.696045 177.482
lowerback -20.8615 0.634688 -3.77214
upperback -8.93315 -0.218783 -1.22514
thorax 1.9255 -0.832426 0.763179
lowerneck -9.34227 2.03081 -1.10414
upperneck 37.6429 -2.6332 2.44374
head 14.5835 -2.66636 0.378994
rclavicle 3.60142e-015 -4.57205e-015
rhumerus -42.556 -7.63096 -74.0339
rradius 12.4851
rwrist 5.22427
rhand 15.1535 10.2807
rfingers 7.12502
rthumb 39.9961 -14.9465
lclavicle 3.60142e-015 -4.57205e-015
lhumerus -48.305 17.6564 63.2878
lradius 24.7342
lwrist -1.53271
lhand 27.3913 22.7832
lfingers 7.12502
lthumb 51.347 43.2689
rfemur -31.2893 -16.5924 29.2318
rtibia 59.9742
rfoot 28.6833 -27.622
rtoes 28.0441
lfemur -46.9565 3.85968 -37.9274
ltibia 42.548
lfoot -34.7842 22.8312
ltoes 4.77632
36
root -0.254131 16.1932 -14.9775 -152.883 -0.896822 177.712
lowerback -20.8606 0.664648 -3.38182
upperback -8.90302 -0.239904 -1.16323
thorax 1.96571 -0.845195 0.602972
lowerneck -9.49131 2.05784 -1.22241
upperneck 37.7744 -2.65055 2.60786
head 14.6854 -2.67313 0.461371
rclavicle -8.43903e-015 2.38542e-015
rhumerus -42.4795 -7.31281 -74.2738
rradius 12.5452
rwrist 4.87486
rhand 15.2117 10.059
rfingers 7.12502
rthumb 40.0509 -15.1517
lclavicle -8.43903e-015 2.38542e-015
lhumerus -48.2331 17.8421 63.2393
lradius 24.6316
lwrist -1.7026
lhand 27.4375 22.8017
lfingers 7.12502
lthumb 51.3891 43.2633
rfemur -31.1547 -16.802 29.4891
rtibia 59.8937
rfoot 27.8486 -28.4953
rtoes 30.5793
lfemur -46.9664 3.62503 -37.5822
ltibia 42.6314
lfoot -35.0727 22.7003
ltoes 5.42268
37
root -0.255047 16.1951 -14.981 -152.841 -0.913907 177.872
lowerback -20.9895 0.708353 -3.2321
upperback -8.88838 -0.208208 -1.13363
thorax 2.04795 -0.834377 0.554768
lowerneck -9.4123 2.02559 -1.17922
upperneck 37.7075 -2.68682 2.5705
head 14.6352 -2.68583 0.434781
rclavicle 5.82377e-015 4.17448e-015
rhumerus -42.3496 -7.4995 -74.1905
rradius 12.3601
rwrist 5.00704
rhand 15.2823 10.0894
rfingers 7.12502
rthumb 40.1173 -15.1011
lclavicle 5.82377e-015 4.17448e-015
lhumerus -48.2193 17.8323 63.2686
lradius 24.6598
lwrist -1.65992
lhand 27.3656 22.7358
lfingers 7.12502
lthumb 51.3237 43.2348
rfemur -31.2301 -16.7624 29.6691
rtibia 59.8619
rfoot 28.6684 -27.6416
rtoes 28.5204
lfemur -47.0385 3.57084 -37.3838
ltibia 42.6536
lfoot -35.1415 22.7895
ltoes 5.42781
